<?xml version="1.0" encoding="utf-8"?>
<!-- Generator: Adobe Illustrator 22.0.0, SVG Export Plug-In . SVG Version: 6.00 Build 0)  -->
<svg version="1.1" id="图层_1" xmlns="http://www.w3.org/2000/svg" xmlns:xlink="http://www.w3.org/1999/xlink" x="0px" y="0px"
	 viewBox="0 0 23 22" style="enable-background:new 0 0 23 22;" xml:space="preserve">
<style type="text/css">
	.st0{fill:#999999;}
</style>
<title>15</title>
<desc>Created with Sketch.</desc>
<g id="Page-1">
	<g id="首页-1" transform="translate(-247.000000, -1091.000000)">
		<path id="_x31_5" class="st0" d="M265.8,1107.4C265.7,1107.4,265.7,1107.4,265.8,1107.4l-9.8,0c-0.9,0-1.7-0.3-2.3-1
			c-0.5-0.5-0.9-1.3-1.3-2.3c-0.6-1.8-0.9-4.1-1.2-6.5c-0.1-0.4-0.1-0.9-0.2-1.3c-0.2-1.6-0.7-2.8-1.5-3.3c-0.8-0.6-1.7-0.4-1.7-0.4
			c-0.4,0.1-0.8-0.1-0.9-0.5c-0.1-0.4,0.1-0.8,0.5-0.9c0.1,0,1.5-0.3,2.8,0.6c0.9,0.6,1.5,1.6,1.9,3c0,0,0,0,0,0l15.4,0
			c0.8,0,1.3,0.3,1.6,0.6c0.6,0.7,0.6,1.5,0.6,1.6l0,0l0,0c0,0-0.4,3.1-1.3,6.6c-0.4,1.6-0.9,2.7-1.7,3.3
			C266.5,1107.3,266,1107.4,265.8,1107.4L265.8,1107.4z M264.4,1110.1c-0.4,0-0.8,0.3-0.8,0.8c0,0.4,0.3,0.8,0.8,0.8
			c0.4,0,0.8-0.3,0.8-0.8C265.1,1110.4,264.8,1110.1,264.4,1110.1L264.4,1110.1z M264.4,1113c-1.2,0-2.2-1-2.2-2.2
			c0-1.2,1-2.2,2.2-2.2c1.2,0,2.2,1,2.2,2.2C266.6,1112,265.6,1113,264.4,1113L264.4,1113z M255.8,1110.1c-0.4,0-0.8,0.3-0.8,0.8
			c0,0.4,0.3,0.8,0.8,0.8c0.4,0,0.8-0.3,0.8-0.8C256.6,1110.4,256.2,1110.1,255.8,1110.1L255.8,1110.1z M255.8,1113
			c-1.2,0-2.2-1-2.2-2.2c0-1.2,1-2.2,2.2-2.2c1.2,0,2.2,1,2.2,2.2C258,1112,257,1113,255.8,1113L255.8,1113z"/>
	</g>
</g>
</svg>
