<?xml version="1.0" encoding="utf-8"?>
<!-- Generator: Adobe Illustrator 22.0.0, SVG Export Plug-In . SVG Version: 6.00 Build 0)  -->
<svg version="1.1" id="图层_1" xmlns="http://www.w3.org/2000/svg" xmlns:xlink="http://www.w3.org/1999/xlink" x="0px" y="0px"
	 viewBox="0 0 21 22" style="enable-background:new 0 0 21 22;" xml:space="preserve">
<style type="text/css">
	.st0{fill:#999999;}
</style>
<g id="Page-1">
	<g id="首页-1" transform="translate(-331.000000, -1091.000000)">
		<g id="_x31_6" transform="translate(331.000000, 1091.000000)">
			<path id="Fill-1" class="st0" d="M10.1,10.6c-1.4,0-2.8-0.6-3.8-1.6c-1-1-1.6-2.3-1.6-3.8s0.6-2.8,1.6-3.8c1-1,2.3-1.6,3.8-1.6
				c1.4,0,2.8,0.6,3.8,1.6c1,1,1.6,2.3,1.6,3.8s-0.6,2.8-1.6,3.8C12.9,10.1,11.5,10.6,10.1,10.6"/>
			<path id="Fill-4" class="st0" d="M20.3,22H0v-5.2c0-2.5,2-4.5,4.5-4.5h11.4c2.4,0,4.4,2,4.4,4.4V22z"/>
		</g>
	</g>
</g>
</svg>
