<?xml version="1.0" encoding="UTF-8"?>
<svg width="23px" height="22px" viewBox="0 0 23 22" version="1.1" xmlns="http://www.w3.org/2000/svg" xmlns:xlink="http://www.w3.org/1999/xlink">
    <!-- Generator: Sketch 47.1 (45422) - http://www.bohemiancoding.com/sketch -->
    <title>28</title>
    <desc>Created with Sketch.</desc>
    <defs></defs>
    <g id="Page-1" stroke="none" stroke-width="1" fill="none" fill-rule="evenodd">
        <g id="艺商城" transform="translate(-95.000000, -1606.000000)" fill="#E87908">
            <path d="M102.299166,1616.23223 L97.9330667,1616.23223 C96.3140299,1616.23223 95,1614.9142 95,1613.29867 L95,1608.93307 C95,1607.31353 96.31803,1606 97.9330667,1606 L102.299166,1606 C103.918703,1606 105.232233,1607.31753 105.232233,1608.93307 L105.232233,1613.29867 C105.232233,1614.9182 103.918703,1616.23223 102.299166,1616.23223 L102.299166,1616.23223 Z M114.301439,1616.23223 L109.935839,1616.23223 C108.316303,1616.23223 107.002773,1614.9142 107.002773,1613.29867 L107.002773,1608.93307 C107.002773,1607.31353 108.320303,1606 109.935839,1606 L114.301439,1606 C115.920975,1606 117.235005,1607.31753 117.235005,1608.93307 L117.235005,1613.29867 C117.235005,1614.9182 115.920975,1616.23223 114.301439,1616.23223 L114.301439,1616.23223 Z M109.93984,1607.53203 C109.165822,1607.53203 108.534308,1608.16305 108.534308,1608.93707 L108.534308,1613.30317 C108.534308,1614.07668 109.165822,1614.7077 109.93984,1614.7077 L114.305439,1614.7077 C115.079456,1614.7077 115.710971,1614.07668 115.710971,1613.30317 L115.710971,1608.93707 C115.710971,1608.16305 115.079456,1607.53203 114.305439,1607.53203 L109.93984,1607.53203 Z M102.299166,1628 L97.9330667,1628 C96.3140299,1628 95,1626.68247 95,1625.06743 L95,1620.70133 C95,1619.0818 96.31803,1617.76777 97.9330667,1617.76777 L102.299166,1617.76777 C103.918703,1617.76777 105.232233,1619.0858 105.232233,1620.70133 L105.232233,1625.06743 C105.232233,1626.68247 103.918703,1628 102.299166,1628 L102.299166,1628 Z M114.301439,1628 L109.935839,1628 C108.316303,1628 107.002773,1626.68247 107.002773,1625.06743 L107.002773,1620.70133 C107.002773,1619.0818 108.320303,1617.76777 109.935839,1617.76777 L114.301439,1617.76777 C115.920975,1617.76777 117.235005,1619.0858 117.235005,1620.70133 L117.235005,1625.06743 C117.235005,1626.68247 115.920975,1628 114.301439,1628 L114.301439,1628 Z" id="28"></path>
        </g>
    </g>
</svg>