<?xml version="1.0" encoding="UTF-8"?>
<svg width="22px" height="22px" viewBox="0 0 22 22" version="1.1" xmlns="http://www.w3.org/2000/svg" xmlns:xlink="http://www.w3.org/1999/xlink">
    <!-- Generator: Sketch 47.1 (45422) - http://www.bohemiancoding.com/sketch -->
    <title>29</title>
    <desc>Created with Sketch.</desc>
    <defs></defs>
    <g id="Page-1" stroke="none" stroke-width="1" fill="none" fill-rule="evenodd">
        <g id="艺术大家" transform="translate(-170.000000, -1557.000000)" fill="#E87908">
            <path d="M191.643423,1574.29351 C191.118424,1571.75752 189.629429,1569.52403 187.490436,1568.06403 C188.545932,1567.21204 189.16543,1565.93204 189.17893,1564.57505 C189.19843,1563.34805 188.695432,1562.17005 187.794435,1561.33606 C186.840438,1560.50306 185.578942,1560.11106 184.319946,1560.25606 C184.255946,1560.24706 184.190446,1560.24706 184.125946,1560.25606 C182.704951,1557.36807 179.211962,1556.17907 176.323971,1557.60007 C173.43598,1559.02156 172.246984,1562.51455 173.667979,1565.40254 C174.299477,1566.68604 175.380974,1567.69204 176.70597,1568.23003 C173.27748,1569.29803 170.719988,1572.17502 170.06149,1575.70501 C169.882991,1576.53751 170.09799,1577.40551 170.642989,1578.0585 C171.115487,1578.6465 171.826485,1578.992 172.580982,1579 L185.288943,1579 C186.04394,1578.994 186.755938,1578.6485 187.226936,1578.0585 C187.482436,1577.7465 187.666935,1577.38301 187.767435,1576.99251 L189.44193,1576.99251 C190.075928,1576.99151 190.677426,1576.71301 191.089924,1576.23151 C191.571923,1575.71051 191.777922,1574.99101 191.643423,1574.29351 L191.643423,1574.29351 Z M190.106427,1575.33151 C189.956428,1575.50451 189.739929,1575.60501 189.510929,1575.60851 L187.767435,1575.60851 C187.090937,1572.13552 184.575445,1569.30703 181.205455,1568.23003 C183.799947,1567.15104 185.255443,1564.37455 184.665945,1561.62705 C185.490942,1561.55405 186.309939,1561.81855 186.936437,1562.36055 C187.550935,1562.93105 187.893434,1563.73705 187.877934,1564.57505 C187.859434,1565.93604 186.981437,1567.13604 185.690441,1567.56554 C185.330942,1567.69604 185.145443,1568.09253 185.275443,1568.45153 C185.365942,1568.68603 185.578942,1568.85103 185.828941,1568.88053 C188.016434,1569.17153 189.815928,1572.35552 190.286427,1574.55601 C190.354927,1574.82451 190.287427,1575.10901 190.106427,1575.31751 L190.106427,1575.33151 Z" id="29"></path>
        </g>
    </g>
</svg>