<?xml version="1.0" encoding="UTF-8"?>
<svg width="23px" height="22px" viewBox="0 0 23 22" version="1.1" xmlns="http://www.w3.org/2000/svg" xmlns:xlink="http://www.w3.org/1999/xlink">
    <!-- Generator: Sketch 47.1 (45422) - http://www.bohemiancoding.com/sketch -->
    <title>15</title>
    <desc>Created with Sketch.</desc>
    <defs></defs>
    <g id="Page-1" stroke="none" stroke-width="1" fill="none" fill-rule="evenodd">
        <g id="首页-1" transform="translate(-247.000000, -1091.000000)" fill="#E87908">
            <path d="M252.521284,1096.06775 C252.573126,1096.48995 252.623819,1096.91814 252.672672,1097.33288 C252.951884,1099.69738 253.215577,1101.93085 253.76446,1103.58324 C254.033901,1104.39421 254.356793,1105.00114 254.723941,1105.38737 C255.085802,1105.76797 255.491458,1105.94533 256.000913,1105.94533 L265.779875,1105.94533 L265.787807,1105.94671 C265.835741,1105.93614 265.990002,1105.88499 266.200704,1105.64704 C266.481755,1105.32967 266.886836,1104.65319 267.220419,1103.23334 C267.97736,1100.01131 268.397959,1097.2085 268.45348,1096.82917 C268.451411,1096.70916 268.415202,1096.43834 268.259905,1096.27833 C268.144611,1096.15959 267.951726,1096.09936 267.686538,1096.09936 L252.521284,1096.06775 Z M265.772289,1107.3853 C265.738034,1107.3853 265.707457,1107.38404 265.680904,1107.38209 L256.000913,1107.38209 C255.096262,1107.38209 254.316216,1107.04402 253.682501,1106.37731 C253.161321,1105.82924 252.742216,1105.06344 252.400932,1104.03614 C251.80584,1102.24477 251.533755,1099.94073 251.245692,1097.50139 C251.194999,1097.07102 251.142468,1096.62582 251.088556,1096.19005 C250.887395,1094.56088 250.355065,1093.40322 249.548926,1092.84238 C248.741752,1092.28086 247.892163,1092.46064 247.883771,1092.46259 C247.497657,1092.55386 247.110738,1092.31488 247.019468,1091.92877 C246.928083,1091.54265 247.167178,1091.15562 247.553177,1091.06435 C247.612836,1091.05021 249.028551,1090.72985 250.369549,1091.66289 C251.257647,1092.28074 251.887684,1093.27597 252.251153,1094.63054 C252.256441,1094.63042 252.261499,1094.63031 252.266901,1094.63031 L267.687918,1094.66249 C268.53222,1094.66249 269.035353,1095.00688 269.308357,1095.29586 C269.924715,1095.94785 269.893909,1096.82894 269.888391,1096.92722 L269.886667,1096.95757 L269.882414,1096.98768 C269.878161,1097.01792 269.444227,1100.05051 268.619237,1103.56198 C268.240019,1105.17609 267.684814,1106.29961 266.96891,1106.90091 C266.476698,1107.31461 266.024257,1107.3853 265.772289,1107.3853 L265.772289,1107.3853 Z M264.388415,1110.05891 C263.973793,1110.05891 263.636302,1110.39628 263.636302,1110.81102 C263.636302,1111.22564 263.973793,1111.56313 264.388415,1111.56313 C264.803151,1111.56313 265.140527,1111.22564 265.140527,1110.81102 C265.140527,1110.39628 264.803151,1110.05891 264.388415,1110.05891 L264.388415,1110.05891 Z M264.388415,1113 C263.181447,1113 262.199436,1112.01799 262.199436,1110.81102 C262.199436,1109.60405 263.181447,1108.62204 264.388415,1108.62204 C265.595382,1108.62204 266.577393,1109.60405 266.577393,1110.81102 C266.577393,1112.01799 265.595382,1113 264.388415,1113 L264.388415,1113 Z M255.834581,1110.05891 C255.419959,1110.05891 255.082468,1110.39628 255.082468,1110.81102 C255.082468,1111.22564 255.419959,1111.56313 255.834581,1111.56313 C256.249318,1111.56313 256.586694,1111.22564 256.586694,1110.81102 C256.586694,1110.39628 256.249318,1110.05891 255.834581,1110.05891 L255.834581,1110.05891 Z M255.834581,1113 C254.627614,1113 253.645602,1112.01799 253.645602,1110.81102 C253.645602,1109.60405 254.627614,1108.62204 255.834581,1108.62204 C257.041548,1108.62204 258.02356,1109.60405 258.02356,1110.81102 C258.02356,1112.01799 257.041548,1113 255.834581,1113 L255.834581,1113 Z" id="15"></path>
        </g>
    </g>
</svg>