<svg id="图层_1" data-name="图层 1" xmlns="http://www.w3.org/2000/svg" viewBox="0 0 50 50"><defs><style>.cls-1{fill:#60b9f6;}</style></defs><title>未标题-1</title><path class="cls-1" d="M25,0A25,25,0,1,0,50,25,25,25,0,0,0,25,0Zm0,48.08A23.08,23.08,0,1,1,48.08,25,23.11,23.11,0,0,1,25,48.08Z"/><circle class="cls-1" cx="25" cy="25" r="5.12"/><path class="cls-1" d="M16.14,28.27a.94.94,0,0,0-1.2-.54,1,1,0,0,0-.54,1.21A11.27,11.27,0,0,0,17,33a.91.91,0,0,0,.65.27.94.94,0,0,0,.67-.27,1,1,0,0,0,0-1.32A9.91,9.91,0,0,1,16.14,28.27Z"/><path class="cls-1" d="M17,16.67a11.47,11.47,0,0,0-3.38,8.17.92.92,0,0,0,.92.92,1,1,0,0,0,.95-.92A9.64,9.64,0,0,1,18.34,18a1,1,0,0,0,0-1.32A.94.94,0,0,0,17,16.67Z"/><path class="cls-1" d="M25,4A21,21,0,1,0,46,25,21,21,0,0,0,25,4Zm0,34.5A13.5,13.5,0,1,1,38.5,25,13.49,13.49,0,0,1,25,38.5Z"/></svg>