<?xml version="1.0" encoding="UTF-8"?>
<svg width="50px" height="50px" viewBox="0 0 50 50" version="1.1" xmlns="http://www.w3.org/2000/svg" xmlns:xlink="http://www.w3.org/1999/xlink">
    <!-- Generator: Sketch 47.1 (45422) - http://www.bohemiancoding.com/sketch -->
    <title>2</title>
    <desc>Created with Sketch.</desc>
    <defs>
        <polygon id="path-1" points="7.09556396e-21 5.23560209e-05 7.09556396e-21 50 49.9998691 50 49.9998691 5.23560209e-05 0 5.2356021e-05"></polygon>
    </defs>
    <g id="Page-1" stroke="none" stroke-width="1" fill="none" fill-rule="evenodd">
        <g id="绑定手机号3-copy" transform="translate(-117.000000, -268.000000)">
            <g id="2" transform="translate(117.000000, 268.000000)">
                <g id="Group-3">
                    <mask id="mask-2" fill="white">
                        <use xlink:href="#path-1"></use>
                    </mask>
                    <g id="Clip-2"></g>
                    <path d="M24.8744764,48.4924607 C11.9692408,48.4924607 1.50746073,38.0306806 1.50746073,25.1257068 C1.50746073,12.2204712 11.9692408,1.75895288 24.8744764,1.75895288 C37.7794503,1.75895288 48.2412304,12.2204712 48.2412304,25.1257068 C48.2412304,38.0306806 37.7794503,48.4924607 24.8744764,48.4924607 M24.9998691,5.23560209e-05 C11.192801,5.23560209e-05 -0.000130890052,11.1929843 -0.000130890052,25.0000524 C-0.000130890052,38.8071204 11.192801,50.0000524 24.9998691,50.0000524 C38.807199,50.0000524 49.9998691,38.8071204 49.9998691,25.0000524 C49.9998691,11.1929843 38.807199,5.23560209e-05 24.9998691,5.23560209e-05" id="Fill-1" fill="#8AD2FF" mask="url(#mask-2)"></path>
                </g>
                <path d="M25.9376963,40.4018325 C25.4981675,40.4371728 25.0612565,40.4544503 24.6301047,40.4544503 C17.9319372,40.4549738 12.3484293,36.2900524 11.9015707,30.7327225 C11.5473822,26.3212042 15.1890052,22.3895288 20.4036649,21.2701571 C19.1256545,20.0751309 18.3246073,18.3759162 18.3246073,16.4921466 C18.3246073,12.8835079 21.2604712,9.94764398 24.8691099,9.94764398 C28.4777487,9.94764398 31.4136126,12.8835079 31.4136126,16.4921466 C31.4136126,18.9125654 30.0918848,21.0287958 28.1332461,22.1609948 C28.2039267,22.1994764 28.2722513,22.2408377 28.341623,22.2811518 C28.7767016,22.4801047 29.1921466,22.7193717 29.5753927,23.0070681 C30.9657068,24.0510471 31.8044503,25.5348168 31.936911,27.184555 C32.0696335,28.8342932 31.478534,30.4329843 30.2727749,31.6853403 C29.113089,32.8897906 27.5138743,33.6303665 25.7691099,33.7704188 C25.5704188,33.7863874 25.3727749,33.7942408 25.1772251,33.7942408 C21.7615183,33.7942408 18.8827225,31.4094241 18.6290576,28.2536649 C18.5041885,26.7007853 19.0376963,25.2308901 20.0125654,24.0732984 C16.5874346,25.1246073 14.2837696,27.6926702 14.5112565,30.5230366 C14.8709424,34.9992147 19.9005236,38.2612565 25.7280105,37.7924084 C33.1897906,37.1929319 38.8827225,32.0068063 38.4188482,26.2316754 L41.0282723,26.0219895 C41.6075916,33.2358639 34.8382199,39.686911 25.9376963,40.4018325 M25,3.51753927 C12.9965969,3.51753927 3.26649215,13.2479058 3.26649215,25.2513089 C3.26649215,37.2544503 12.9965969,46.9848168 25,46.9848168 C37.0034031,46.9848168 46.7335079,37.2544503 46.7335079,25.2513089 C46.7335079,13.2479058 37.0034031,3.51753927 25,3.51753927" id="Fill-4" fill="#8AD2FF"></path>
                <path d="M25.5386387,30.9001571 C26.5818325,30.8163874 27.5265969,30.3860209 28.1983246,29.688377 C28.8239791,29.0386387 29.132356,28.2313089 29.0666492,27.4153403 C29.0012042,26.5991099 28.5676963,25.851466 27.8464921,25.3098429 C27.1635079,24.7970157 26.3040838,24.5231937 25.3949215,24.5231937 C25.2731937,24.5231937 25.1509424,24.5281675 25.027644,24.5381152 C22.9412565,24.7056545 21.358534,26.2690052 21.4993717,28.0229319 C21.6402094,29.7768586 23.4501571,31.0695288 25.5386387,30.9001571" id="Fill-6" fill="#8AD2FF"></path>
                <path d="M24.8691099,19.6335079 C26.6013089,19.6335079 28.0104712,18.2243455 28.0104712,16.4921466 C28.0104712,14.7599476 26.6013089,13.3507853 24.8691099,13.3507853 C23.136911,13.3507853 21.7277487,14.7599476 21.7277487,16.4921466 C21.7277487,18.2243455 23.136911,19.6335079 24.8691099,19.6335079" id="Fill-8" fill="#8AD2FF"></path>
            </g>
        </g>
    </g>
</svg>