<svg id="图层_1" data-name="图层 1" xmlns="http://www.w3.org/2000/svg" viewBox="0 0 50 50"><defs><style>.cls-1{fill:#f64e00;}</style></defs><title>社区</title><path class="cls-1" d="M25,0A25,25,0,1,0,50,25,25,25,0,0,0,25,0Zm0,48.08A23.08,23.08,0,1,1,48.08,25,23.11,23.11,0,0,1,25,48.08Z"/><path class="cls-1" d="M29.28,20.88a1.77,1.77,0,0,0-1.67,1.85v3.2a1.68,1.68,0,1,0,3.34,0v-3.2A1.77,1.77,0,0,0,29.28,20.88Z"/><path class="cls-1" d="M25,4A21,21,0,1,0,46,25,21,21,0,0,0,25,4Zm8.2,32.34H17.4A6,6,0,0,1,12,30.85V17.74a5.77,5.77,0,0,1,4.78-4.89l0-.08,7.07,0,2.44,0h.1l3.38.05c.72,0,1.39.05,1.84.1a5.53,5.53,0,0,1,4.56,5.88c-.08,4.14,0,13.48,0,13.48l1.85,5Z"/><path class="cls-1" d="M20.72,20.88a1.77,1.77,0,0,0-1.67,1.85v3.2a1.68,1.68,0,1,0,3.34,0v-3.2A1.76,1.76,0,0,0,20.72,20.88Z"/></svg>