<?xml version="1.0" encoding="UTF-8"?>
<svg width="22px" height="22px" viewBox="0 0 22 22" version="1.1" xmlns="http://www.w3.org/2000/svg" xmlns:xlink="http://www.w3.org/1999/xlink">
    <!-- Generator: Sketch 47.1 (45422) - http://www.bohemiancoding.com/sketch -->
    <title>Page 1</title>
    <desc>Created with Sketch.</desc>
    <defs></defs>
    <g id="Page-1" stroke="none" stroke-width="1" fill="none" fill-rule="evenodd">
        <g id="首页-1" transform="translate(-23.000000, -1091.000000)" fill="#999999">
            <path d="M44.5915111,1101.30641 C43.4502808,1099.95809 42.1639384,1098.49654 40.8013154,1096.94947 C39.4258796,1095.38721 38.0039603,1093.77221 36.7054011,1092.24093 C35.0582155,1090.60864 33.3082297,1090.5851 31.7981109,1092.18134 C30.5511007,1093.58121 29.1291814,1095.07702 27.7540436,1096.52338 C26.3702646,1097.97926 24.9391082,1099.48432 23.6742198,1100.90415 C22.7996739,1101.89908 22.9638561,1102.69973 23.1396592,1103.08798 C23.4161766,1103.69882 24.0440022,1104.06414 24.4915552,1104.06414 L26.4420757,1104.06414 L26.4420757,1110.69221 C26.4420757,1111.80692 27.2364674,1113 28.4194136,1113 L32.2003722,1113 L32.2003722,1106.40887 L36.3353207,1106.40887 L36.3353207,1113 L40.1436926,1113 C40.87849,1113 42.1216265,1112.40525 42.1216265,1110.17642 L42.1216265,1104.06414 L43.5498032,1104.06414 C44.1096914,1104.06414 44.5956827,1103.76766 44.8498522,1103.27064 C45.1513992,1102.68185 45.0629017,1101.95748 44.5915111,1101.30641" id="Page-1"></path>
        </g>
    </g>
</svg>