<?xml version="1.0" encoding="UTF-8"?>
<svg width="50px" height="50px" viewBox="0 0 50 50" version="1.1" xmlns="http://www.w3.org/2000/svg" xmlns:xlink="http://www.w3.org/1999/xlink">
    <!-- Generator: Sketch 47.1 (45422) - http://www.bohemiancoding.com/sketch -->
    <title>1</title>
    <desc>Created with Sketch.</desc>
    <defs>
        <polygon id="path-1" points="0.000142045455 0 49.7159091 0 49.7159091 49.9999143 0.000142045455 49.9999143"></polygon>
    </defs>
    <g id="Page-1" stroke="none" stroke-width="1" fill="none" fill-rule="evenodd">
        <g id="绑定手机号3-copy" transform="translate(-22.000000, -268.000000)">
            <g id="1" transform="translate(22.000000, 268.000000)">
                <g id="Group-3">
                    <mask id="mask-2" fill="white">
                        <use xlink:href="#path-1"></use>
                    </mask>
                    <g id="Clip-2"></g>
                    <path d="M24.9828125,48.4924857 C12.1509943,48.4924857 1.74872159,38.0307714 1.74872159,25.1256286 C1.74872159,12.2204857 12.1509943,1.75877143 24.9828125,1.75877143 C37.8146307,1.75877143 48.2169034,12.2204857 48.2169034,25.1256286 C48.2169034,38.0307714 37.8146307,48.4924857 24.9828125,48.4924857 M24.8580966,-8.57142857e-05 C11.1291193,-8.57142857e-05 0.000142045455,11.1927714 0.000142045455,24.9999143 C0.000142045455,38.8073429 11.1291193,49.9999143 24.8580966,49.9999143 C38.5865057,49.9999143 49.7160511,38.8073429 49.7160511,24.9999143 C49.7160511,11.1927714 38.5865057,-8.57142857e-05 24.8580966,-8.57142857e-05" id="Fill-1" fill="#F15A24" mask="url(#mask-2)"></path>
                </g>
                <polygon id="Fill-4" fill="#F15A24" points="25.1516193 22.1979714 31.5984943 15.7142571 18.7047443 15.7142571"></polygon>
                <polygon id="Fill-6" fill="#F15A24" points="18.3976705 35.8687429 31.9053409 35.8687429 25.1516477 29.0761714"></polygon>
                <path d="M12.9108807,38.1546 L23.5446875,27.4600286 L21.9333239,25.8394571 L28.3699716,25.8394571 L26.758608,27.4600286 L37.3921307,38.1546 L12.9108807,38.1546 Z M15.4830398,23.3500286 C16.8597443,23.3500286 17.9759375,24.4726 17.9759375,25.8571714 C17.9759375,27.2417429 16.8597443,28.3643143 15.4830398,28.3643143 C14.1063352,28.3643143 12.990142,27.2417429 12.990142,25.8571714 C12.990142,24.4726 14.1063352,23.3500286 15.4830398,23.3500286 L15.4830398,23.3500286 Z M14.9165625,12.8408857 C20.8549148,7.79602857 29.4756534,7.79602857 35.4140057,12.8408857 L35.4140057,12.8408857 C35.9390057,13.2868857 36.1253693,13.9948857 35.8892898,14.6446 C35.7174148,15.1171714 35.3540625,15.4651714 34.9049148,15.6217429 L26.758608,23.8143143 L28.3699716,25.4346 L21.9333239,25.4346 L23.5444034,23.8143143 L15.3796307,15.6031714 C14.952358,15.4391714 14.6071875,15.1006 14.4412784,14.6446 C14.2051989,13.9948857 14.3915625,13.2868857 14.9165625,12.8408857 L14.9165625,12.8408857 Z M37.2941193,25.8571714 C37.2941193,27.2417429 36.1779261,28.3643143 34.8012216,28.3643143 C33.424517,28.3643143 32.3083239,27.2417429 32.3083239,25.8571714 C32.3083239,24.4726 33.424517,23.3500286 34.8012216,23.3500286 C36.1779261,23.3500286 37.2941193,24.4726 37.2941193,25.8571714 L37.2941193,25.8571714 Z M25.1077557,3.26631429 C13.1728125,3.26631429 3.49752841,12.9968857 3.49752841,25.0000286 C3.49752841,37.0031714 13.1728125,46.7334571 25.1077557,46.7334571 C37.0426989,46.7334571 46.717983,37.0031714 46.717983,25.0000286 C46.717983,12.9968857 37.0426989,3.26631429 25.1077557,3.26631429 L25.1077557,3.26631429 Z" id="Fill-8" fill="#F15A24"></path>
                <path d="M17.9602841,13.4286 L32.3702273,13.4286 C27.9619886,10.6503143 22.3688068,10.6503143 17.9602841,13.4286" id="Fill-10" fill="#F15A24"></path>
            </g>
        </g>
    </g>
</svg>