<svg id="图层_1" data-name="图层 1" xmlns="http://www.w3.org/2000/svg" viewBox="0 0 50 50"><defs><style>.cls-1{fill:#95d558;}</style></defs><title>大师云集</title><path class="cls-1" d="M25,50A25,25,0,1,1,50,25,25,25,0,0,1,25,50ZM25,1.92A23.08,23.08,0,1,0,48.08,25,23.11,23.11,0,0,0,25,1.92Z"/><path class="cls-1" d="M8.33,23.47a7.3,7.3,0,0,1,14.22,0h4.71a7.3,7.3,0,0,1,14.22,0h4.44a21,21,0,0,0-41.84,0Z"/><path class="cls-1" d="M41.5,26.15a7.27,7.27,0,0,1-14.32,0H22.6a7.27,7.27,0,0,1-14.32,0H4.06a21,21,0,0,0,41.88,0Z"/></svg>