<?xml version="1.0" encoding="UTF-8"?>
<svg width="50px" height="50px" viewBox="0 0 50 50" version="1.1" xmlns="http://www.w3.org/2000/svg" xmlns:xlink="http://www.w3.org/1999/xlink">
    <!-- Generator: Sketch 47.1 (45422) - http://www.bohemiancoding.com/sketch -->
    <title>3</title>
    <desc>Created with Sketch.</desc>
    <defs>
        <polygon id="path-1" points="0 25.00005 0 50 50 50 50 25.00005 50 0.0001 0 0.0001"></polygon>
    </defs>
    <g id="Page-1" stroke="none" stroke-width="1" fill="none" fill-rule="evenodd">
        <g id="绑定手机号3-copy" transform="translate(-211.000000, -268.000000)">
            <g id="3" transform="translate(211.000000, 268.000000)">
                <g id="Group-3">
                    <mask id="mask-2" fill="white">
                        <use xlink:href="#path-1"></use>
                    </mask>
                    <g id="Clip-2"></g>
                    <path d="M25,48.0801 C12.253,48.0801 1.92,37.7471 1.92,25.0001 C1.92,12.2531 12.253,1.9201 25,1.9201 C37.747,1.9201 48.08,12.2531 48.08,25.0001 C48.063,37.7401 37.74,48.0631 25,48.0801 M25,0.0001 C11.193,0.0001 0,11.1931 0,25.0001 C0,38.8071 11.193,50.0001 25,50.0001 C38.807,50.0001 50,38.8071 50,25.0001 C50,11.1931 38.807,0.0001 25,0.0001" id="Fill-1" fill="#FBB12B" mask="url(#mask-2)"></path>
                </g>
                <path d="M33.6699,25 C31.2789,24.995 29.3409,23.061 29.3299,20.67 C29.3299,23.062 27.3909,25 24.9999,25 C22.6079,25 20.6699,23.061 20.6699,20.67 C20.5549,23.064 18.5209,24.912 16.1269,24.797 C13.8939,24.689 12.1079,22.903 11.9999,20.67 L15.7899,12 L34.2099,12 L37.9999,20.67 C37.9939,23.059 36.0599,24.995 33.6699,25 L33.6699,25 Z M36.3799,35 C36.3799,36.657 35.0369,38 33.3799,38 L16.5999,38 C14.9429,38 13.5999,36.657 13.5999,35 L13.5999,26.5 C14.4369,26.934 15.3669,27.157 16.3099,27.15 C17.9559,27.139 19.5249,26.452 20.6499,25.25 C21.7519,26.492 23.3399,27.193 24.9999,27.17 C26.6449,27.164 28.2129,26.477 29.3299,25.27 C31.1349,27.219 34.0159,27.729 36.3799,26.52 L36.3799,35 Z M24.9999,4 C13.4019,4 3.9999,13.402 3.9999,25 C3.9999,36.598 13.4019,46 24.9999,46 C36.5979,46 45.9999,36.598 45.9999,25 C45.9999,13.402 36.5979,4 24.9999,4 L24.9999,4 Z" id="Fill-4" fill="#FBB12B"></path>
            </g>
        </g>
    </g>
</svg>