<svg id="图层_1" data-name="图层 1" xmlns="http://www.w3.org/2000/svg" viewBox="0 0 50 50"><defs><style>.cls-1{fill:#fbb12b;}</style></defs><title>商城</title><path class="cls-1" d="M25,0A25,25,0,1,0,50,25,25,25,0,0,0,25,0Zm0,48.08A23.08,23.08,0,1,1,48.08,25,23.11,23.11,0,0,1,25,48.08Z"/><path class="cls-1" d="M25,4A21,21,0,1,0,46,25,21,21,0,0,0,25,4ZM36.38,35a3,3,0,0,1-3,3H16.6a3,3,0,0,1-3-3v-8.5a5.8,5.8,0,0,0,2.71.65,6,6,0,0,0,4.34-1.9A5.71,5.71,0,0,0,25,27.17a5.93,5.93,0,0,0,4.33-1.9,5.93,5.93,0,0,0,7.05,1.25ZM33.67,25a4.35,4.35,0,0,1-4.34-4.33,4.33,4.33,0,0,1-8.66,0,4.34,4.34,0,0,1-8.67,0L15.79,12H34.21L38,20.67A4.34,4.34,0,0,1,33.67,25Z"/></svg>