<?xml version="1.0" encoding="UTF-8"?>
<svg width="23px" height="22px" viewBox="0 0 23 22" version="1.1" xmlns="http://www.w3.org/2000/svg" xmlns:xlink="http://www.w3.org/1999/xlink">
    <!-- Generator: Sketch 47.1 (45422) - http://www.bohemiancoding.com/sketch -->
    <title>13</title>
    <desc>Created with Sketch.</desc>
    <defs></defs>
    <g id="Page-1" stroke="none" stroke-width="1" fill="none" fill-rule="evenodd">
        <g id="首页-1" transform="translate(-93.000000, -1091.000000)" fill="#999999">
            <path d="M107.939142,1104.29608 C107.165253,1104.29608 106.534238,1104.92709 106.534238,1105.70109 L106.534238,1110.067 C106.534238,1110.84089 107.165253,1111.47191 107.939142,1111.47191 L112.305055,1111.47191 C113.079057,1111.47191 113.710071,1110.84089 113.710071,1110.067 L113.710071,1105.70109 C113.710071,1104.92709 113.079057,1104.29608 112.305055,1104.29608 L107.939142,1104.29608 Z M112.301005,1113 L107.935205,1113 C106.315875,1113 105.002209,1111.68228 105.002209,1110.067 L105.002209,1105.70109 C105.002209,1104.08176 106.319813,1102.76798 107.935205,1102.76798 L112.301005,1102.76798 C113.920447,1102.76798 115.234113,1104.0857 115.234113,1105.70109 L115.234113,1110.067 C115.234113,1111.68228 113.920447,1113 112.301005,1113 L112.301005,1113 Z M95.9369333,1104.29608 C95.1631561,1104.29608 94.5320294,1104.92709 94.5320294,1105.70109 L94.5320294,1110.067 C94.5320294,1110.84089 95.1631561,1111.47191 95.9369333,1111.47191 L100.302846,1111.47191 C101.076848,1111.47191 101.707862,1110.84089 101.707862,1110.067 L101.707862,1105.70109 C101.707862,1104.92709 101.076848,1104.29608 100.302846,1104.29608 L95.9369333,1104.29608 Z M100.298908,1113 L95.9329958,1113 C94.3137787,1113 93,1111.68228 93,1110.067 L93,1105.70109 C93,1104.08176 94.3177162,1102.76798 95.9329958,1102.76798 L100.298908,1102.76798 C101.918238,1102.76798 103.232017,1104.0857 103.232017,1105.70109 L103.232017,1110.067 C103.232017,1111.68228 101.918238,1113 100.298908,1113 L100.298908,1113 Z M107.939142,1092.53203 C107.165253,1092.53203 106.534238,1093.16316 106.534238,1093.93705 L106.534238,1098.30296 C106.534238,1099.07685 107.165253,1099.70797 107.939142,1099.70797 L112.305055,1099.70797 C113.079057,1099.70797 113.710071,1099.07685 113.710071,1098.30296 L113.710071,1093.93705 C113.710071,1093.16316 113.079057,1092.53203 112.305055,1092.53203 L107.939142,1092.53203 Z M112.301005,1101.23202 L107.935205,1101.23202 C106.315875,1101.23202 105.002209,1099.9143 105.002209,1098.29902 L105.002209,1093.93311 C105.002209,1092.31378 106.319813,1091 107.935205,1091 L112.301005,1091 C113.920447,1091 115.234113,1092.31772 115.234113,1093.93311 L115.234113,1098.29902 C115.234113,1099.91835 113.920447,1101.23202 112.301005,1101.23202 L112.301005,1101.23202 Z M95.9369333,1092.53203 C95.1631561,1092.53203 94.5320294,1093.16316 94.5320294,1093.93705 L94.5320294,1098.30296 C94.5320294,1099.07685 95.1631561,1099.70797 95.9369333,1099.70797 L100.302846,1099.70797 C101.076848,1099.70797 101.707862,1099.07685 101.707862,1098.30296 L101.707862,1093.93705 C101.707862,1093.16316 101.076848,1092.53203 100.302846,1092.53203 L95.9369333,1092.53203 Z M100.298908,1101.23202 L95.9329958,1101.23202 C94.3137787,1101.23202 93,1099.9143 93,1098.29902 L93,1093.93311 C93,1092.31378 94.3177162,1091 95.9329958,1091 L100.298908,1091 C101.918238,1091 103.232017,1092.31772 103.232017,1093.93311 L103.232017,1098.29902 C103.232017,1099.91835 101.918238,1101.23202 100.298908,1101.23202 L100.298908,1101.23202 Z" id="13"></path>
        </g>
    </g>
</svg>