<?xml version="1.0" encoding="UTF-8"?>
<svg width="22px" height="22px" viewBox="0 0 22 22" version="1.1" xmlns="http://www.w3.org/2000/svg" xmlns:xlink="http://www.w3.org/1999/xlink">
    <!-- Generator: Sketch 47.1 (45422) - http://www.bohemiancoding.com/sketch -->
    <title>14</title>
    <desc>Created with Sketch.</desc>
    <defs></defs>
    <g id="Page-1" stroke="none" stroke-width="1" fill="none" fill-rule="evenodd">
        <g id="首页-1" transform="translate(-169.000000, -1091.000000)" fill="#999999">
            <path d="M189.106431,1109.33153 C188.956509,1109.50444 188.740138,1109.60522 188.511171,1109.6084 L186.767058,1109.6084 C186.090814,1106.1354 183.575493,1103.30694 180.205211,1102.22994 C182.799855,1101.15099 184.255197,1098.37431 183.666028,1095.6267 C184.490948,1095.55402 185.310054,1095.81871 185.936462,1096.36039 C186.550826,1096.93115 186.893308,1097.73669 186.877665,1098.57532 C186.859115,1099.93583 185.981452,1101.13563 184.690568,1101.56532 C184.331197,1101.69559 184.145282,1102.09206 184.27527,1102.45143 C184.365943,1102.68607 184.578991,1102.85122 184.829,1102.88043 C187.016098,1103.17128 188.815723,1106.35523 189.286394,1108.55617 C189.354779,1108.82418 189.287501,1109.10866 189.106431,1109.31755 L189.106431,1109.33153 Z M185.1611,1111.18639 C184.949437,1111.45302 184.629381,1111.61055 184.288975,1111.61567 L171.636229,1111.61567 C171.295962,1111.61055 170.975767,1111.45302 170.764104,1111.18639 C170.473118,1110.85817 170.355035,1110.41145 170.445708,1109.98217 C171.036954,1106.25058 174.161518,1103.44358 177.934915,1103.25434 C181.708313,1103.44358 184.833015,1106.25058 185.424122,1109.98217 C185.525317,1110.3983 185.428275,1110.83796 185.1611,1111.17269 L185.1611,1111.18639 Z M173.50507,1096.84491 C173.50507,1094.38302 175.500854,1092.38738 177.962602,1092.38738 C180.424488,1092.38738 182.420134,1094.38302 182.420134,1096.84491 C182.420134,1099.30666 180.424488,1101.30244 177.962602,1101.30244 C175.500854,1101.30244 173.50507,1099.30666 173.50507,1096.84491 L173.50507,1096.84491 Z M190.643172,1108.29329 C190.118236,1105.7572 188.629254,1103.52387 186.490192,1102.06382 C187.546018,1101.21177 188.165504,1099.9321 188.178932,1098.57532 C188.198728,1097.34797 187.695526,1096.16991 186.794606,1095.33585 C185.840113,1094.5029 184.578576,1094.11086 183.319946,1094.25622 C183.255713,1094.24694 183.190511,1094.24694 183.12614,1094.25622 C181.704991,1091.36824 178.211919,1090.17896 175.323799,1091.60011 C172.435816,1093.02126 171.246541,1096.51447 172.667691,1099.40245 C173.299221,1100.68586 174.380657,1101.69213 175.70615,1102.22994 C172.277173,1103.29781 169.719906,1106.17458 169.061382,1109.7053 C168.883219,1110.53742 169.097651,1111.40512 169.642799,1112.05866 C170.11527,1112.64672 170.826537,1112.99211 171.580856,1113 L184.288975,1113 C185.043848,1112.99419 185.755807,1112.64838 186.227032,1112.05866 C186.48244,1111.74677 186.666694,1111.38297 186.767058,1110.99273 L188.441955,1110.99273 C189.075838,1110.9912 189.677466,1110.71309 190.089442,1110.23135 C190.572156,1109.71042 190.777729,1108.99057 190.643172,1108.29329 L190.643172,1108.29329 Z" id="14"></path>
        </g>
    </g>
</svg>