<?xml version="1.0" encoding="UTF-8"?>
<svg width="21px" height="22px" viewBox="0 0 21 22" version="1.1" xmlns="http://www.w3.org/2000/svg" xmlns:xlink="http://www.w3.org/1999/xlink">
    <!-- Generator: Sketch 47.1 (45422) - http://www.bohemiancoding.com/sketch -->
    <title>16</title>
    <desc>Created with Sketch.</desc>
    <defs></defs>
    <g id="Page-1" stroke="none" stroke-width="1" fill="none" fill-rule="evenodd">
        <g id="首页-1" transform="translate(-331.000000, -1091.000000)" fill="#999999">
            <g id="16" transform="translate(331.000000, 1091.000000)">
                <path d="M10.1108456,1.43228556 C7.96657889,1.43228556 6.22210111,3.17676333 6.22210111,5.32103 C6.22210111,7.46529667 7.96657889,9.20977444 10.1108456,9.20977444 C12.25499,9.20977444 13.99959,7.46529667 13.99959,5.32103 C13.99959,3.17676333 12.25499,1.43228556 10.1108456,1.43228556 M10.1108456,10.6420967 C8.68952333,10.6420967 7.35326778,10.0885522 6.34823444,9.08351889 C5.34332333,8.07848556 4.78977889,6.74235222 4.78977889,5.32103 C4.78977889,3.89970778 5.34332333,2.56345222 6.34823444,1.55854111 C7.35326778,0.553507778 8.68952333,-3.66666667e-05 10.1108456,-3.66666667e-05 C11.5320456,-3.66666667e-05 12.8683011,0.553507778 13.8734567,1.55854111 C14.8783678,2.56345222 15.4319122,3.89970778 15.4319122,5.32103 C15.4319122,6.74235222 14.8783678,8.07848556 13.8734567,9.08351889 C12.8683011,10.0885522 11.5320456,10.6420967 10.1108456,10.6420967" id="Fill-1"></path>
                <path d="M1.43228556,20.5357044 L18.8601967,20.5357044 L18.8601967,16.6358378 C18.8601967,15.01236 17.5393411,13.6915044 15.9159856,13.6915044 L4.47085222,13.6915044 C2.79543,13.6915044 1.43228556,15.0546489 1.43228556,16.7301933 L1.43228556,20.5357044 Z M20.2925189,21.9680267 L-3.66666667e-05,21.9680267 L-3.66666667e-05,16.7301933 C-3.66666667e-05,14.2648489 2.00563,12.2591822 4.47085222,12.2591822 L15.9159856,12.2591822 C18.3291411,12.2591822 20.2925189,14.22256 20.2925189,16.6358378 L20.2925189,21.9680267 Z" id="Fill-4"></path>
            </g>
        </g>
    </g>
</svg>