<?xml version="1.0" encoding="UTF-8"?>
<svg width="20px" height="21px" viewBox="0 0 20 21" version="1.1" xmlns="http://www.w3.org/2000/svg" xmlns:xlink="http://www.w3.org/1999/xlink">
    <!-- Generator: Sketch 47.1 (45422) - http://www.bohemiancoding.com/sketch -->
    <title>40</title>
    <desc>Created with Sketch.</desc>
    <defs></defs>
    <g id="Page-1" stroke="none" stroke-width="1" fill="none" fill-rule="evenodd">
        <g id="社区详情" transform="translate(-11.000000, -719.000000)" fill="#444444">
            <g id="40" transform="translate(11.000000, 719.000000)">
                <path d="M9.9998,16.3616 C9.25646667,16.3616 8.57046667,16.2761333 7.88566667,16.1334667 L4.94233333,17.9048 L4.94233333,14.9904 C2.71366667,13.6476 1.2278,11.4189333 1.2278,8.87626667 C1.2278,4.7336 5.1422,1.3908 9.971,1.3908 C14.799,1.3908 18.7134,4.7336 18.7422,8.87613333 C18.7422,13.0188 14.8279333,16.3616 9.9998,16.3616 M9.971,0.133333333 C4.45633333,0.133333333 -6.66666667e-05,4.04773333 -6.66666667e-05,8.87613333 C-6.66666667e-05,11.6192 1.45633333,14.0758667 3.74246667,15.6762667 L3.74246667,20.0762667 L8.1134,17.4188 C8.71366667,17.5330667 9.34273333,17.5902667 9.971,17.5902667 C15.4848667,17.5902667 19.9419333,13.7046667 19.9419333,8.87613333 C19.9419333,4.04773333 15.4848667,0.133333333 9.971,0.133333333" id="Fill-1"></path>
                <path d="M13.0852267,10.73308 L6.85669333,10.73308 C6.51389333,10.73308 6.22842667,11.0192133 6.22842667,11.3617467 C6.22842667,11.70468 6.51389333,11.9905467 6.85669333,11.9905467 L13.0852267,11.9905467 C13.42816,11.9905467 13.7134933,11.70468 13.7134933,11.3617467 C13.7134933,11.0192133 13.42816,10.73308 13.0852267,10.73308" id="Fill-4"></path>
                <path d="M14.3417333,6.99062667 L5.59946667,6.99062667 C5.2564,6.99062667 4.97106667,7.27636 4.97106667,7.61916 C4.97106667,7.96169333 5.25653333,8.24756 5.59946667,8.24756 L14.3417333,8.24756 L14.3418667,8.24756 C14.6856,8.24756 14.9709333,7.96169333 14.9710667,7.61916 C14.9710667,7.27636 14.6856,6.99062667 14.3417333,6.99062667" id="Fill-6"></path>
            </g>
        </g>
    </g>
</svg>