<?xml version="1.0" encoding="UTF-8"?>
<svg width="20px" height="19px" viewBox="0 0 20 19" version="1.1" xmlns="http://www.w3.org/2000/svg" xmlns:xlink="http://www.w3.org/1999/xlink">
    <!-- Generator: Sketch 47.1 (45422) - http://www.bohemiancoding.com/sketch -->
    <title>41</title>
    <desc>Created with Sketch.</desc>
    <defs></defs>
    <g id="Page-1" stroke="none" stroke-width="1" fill="none" fill-rule="evenodd">
        <g id="社区详情" transform="translate(-247.000000, -720.000000)" fill="#444444">
            <path d="M256.983597,738.125854 C256.766951,738.125854 256.553148,738.056482 256.372051,737.917841 C256.081158,737.69053 249.244974,732.760384 247.469044,728.474488 C247.45838,728.451331 247.449746,728.427259 247.441011,728.402273 C247.158853,727.708762 247.016353,727.056792 247.016353,726.462514 C247.016353,726.433566 247.017267,726.406651 247.019196,726.379735 C247.009547,726.297769 247,726.196708 247,726.083967 C247,722.728542 249.614887,720 252.827709,720 C254.411165,720 255.914586,720.688636 256.999949,721.862669 C258.0845,720.688636 259.585991,720 261.172189,720 C264.383285,720 267,722.730472 267,726.083967 C267,726.195692 266.991367,726.288222 266.983647,726.357491 C266.987507,726.387353 266.988421,726.424019 266.988421,726.464443 C266.988421,726.990265 266.871008,727.554682 266.630188,728.187455 C266.542534,728.434064 266.432739,728.685345 266.294097,728.95694 C266.284347,728.969534 266.275713,728.983957 266.267994,728.997364 L266.261291,729.013818 C266.241078,729.048453 266.224624,729.085018 266.207358,729.120669 C266.149565,729.23341 266.083139,729.363418 265.995485,729.499215 C263.681039,733.493304 257.84947,737.716532 257.601033,737.911138 C257.41892,738.053638 257.203188,738.125854 256.983597,738.125854 M256.982683,736.812062 C258.406168,735.744067 263.025209,732.132385 264.91388,728.872232 L264.930232,728.8443 L264.947601,728.816369 C265.003463,728.73166 265.043888,728.64878 265.095891,728.54772 C265.1094,728.518772 265.123822,728.490841 265.138347,728.461996 L265.15084,728.435892 L265.175826,728.38978 L265.204773,728.340621 C265.307865,728.135452 265.389729,727.945722 265.461945,727.744412 C265.647816,727.253226 265.738313,726.834255 265.740243,726.481812 L265.72775,726.352718 L265.741259,726.223624 C265.745118,726.188075 265.750806,726.140845 265.750806,726.083967 C265.750806,723.419108 263.696579,721.250108 261.172189,721.250108 C259.96149,721.250108 258.775066,721.782734 257.918842,722.711174 L257.000965,723.705126 L256.082174,722.711174 C255.22402,721.782734 254.037494,721.250108 252.827709,721.250108 C250.303421,721.250108 248.249092,723.419108 248.249092,726.083967 C248.249092,726.145619 248.256913,726.200568 248.261687,726.245867 L248.271336,726.360437 L248.265546,726.462514 C248.265546,726.894079 248.378186,727.388109 248.598692,727.931299 L248.613216,727.965934 L248.623779,727.995795 C250.050109,731.438975 255.335746,735.581252 256.982683,736.812062" id="41"></path>
        </g>
    </g>
</svg>