<?xml version="1.0" encoding="UTF-8"?>
<svg width="20px" height="20px" viewBox="0 0 20 20" version="1.1" xmlns="http://www.w3.org/2000/svg" xmlns:xlink="http://www.w3.org/1999/xlink">
    <!-- Generator: Sketch 47.1 (45422) - http://www.bohemiancoding.com/sketch -->
    <title>42</title>
    <desc>Created with Sketch.</desc>
    <defs></defs>
    <g id="Page-1" stroke="none" stroke-width="1" fill="none" fill-rule="evenodd">
        <g id="社区详情" transform="translate(-314.000000, -720.000000)" fill="#333333">
            <g id="42" transform="translate(314.000000, 720.000000)">
                <path d="M18.5667407,9.96580247 C18.5667407,12.2637037 17.6697037,14.4241975 16.0445185,16.0493827 C14.4169877,17.6745679 12.2564938,18.5692593 9.95846914,18.5692593 C7.6605679,18.5692593 5.4977284,17.6745679 3.87254321,16.047037 C2.24488889,14.4218519 1.35032099,12.261358 1.35032099,9.96098765 C1.35032099,7.66061728 2.24735802,5.50012346 3.87488889,3.87259259 C5.50007407,2.24493827 7.6605679,1.35037037 9.96093827,1.35037037 L9.98266667,1.35037037 L9.98501235,0 L9.96093827,0 C8.61550617,0 7.31093827,0.265308642 6.08365432,0.783703704 C4.89723457,1.28518519 3.83155556,2.00382716 2.91760494,2.91765432 C2.00377778,3.83395062 1.28525926,4.89728395 0.783654321,6.0837037 C0.262790123,7.31345679 -4.9382716e-05,8.61790123 -4.9382716e-05,9.96098765 C-4.9382716e-05,11.3040741 0.265259259,12.6085185 0.781308642,13.8359259 C1.28279012,15.0222222 2.00130864,16.0880247 2.91525926,17.0018519 C3.83155556,17.9158025 4.89488889,18.634321 6.08118519,19.1358025 C7.31093827,19.6566667 8.61550617,19.9195062 9.95846914,19.9195062 C11.3040247,19.9195062 12.6061235,19.6566667 13.8358765,19.1358025 C15.0198272,18.634321 16.0855062,17.9181481 16.9994568,17.004321 C17.913284,16.0903704 18.6318025,15.027037 19.1334074,13.8407407 C19.6518025,12.6133333 19.9171111,11.3088889 19.9171111,9.96580247 L18.5667407,9.96580247 Z" id="Fill-1"></path>
                <polygon id="Fill-4" points="11.0888025 9.80219753 18.5426296 2.34849383 18.5426296 6.23318519 19.8928765 6.23318519 19.8928765 0.0578765432 13.7007778 0.0578765432 13.7007778 1.40824691 17.5731235 1.40824691 10.1341111 8.84750617"></polygon>
            </g>
        </g>
    </g>
</svg>