<?xml version="1.0" encoding="UTF-8"?>
<svg width="20px" height="21px" viewBox="0 0 20 21" version="1.1" xmlns="http://www.w3.org/2000/svg" xmlns:xlink="http://www.w3.org/1999/xlink">
    <!-- Generator: Sketch 47.1 (45422) - http://www.bohemiancoding.com/sketch -->
    <title>43</title>
    <desc>Created with Sketch.</desc>
    <defs></defs>
    <g id="Page-1" stroke="none" stroke-width="1" fill="none" fill-rule="evenodd">
        <g id="社区详情" transform="translate(-11.000000, -863.000000)" fill="#DFDFDF">
            <g id="43" transform="translate(11.000000, 863.000000)">
                <path d="M7.11416092,13.8846207 L6.1597931,12.9301379 C6.09990805,12.8703678 6.00289655,12.8704828 5.94301149,12.9302529 C5.92255172,12.9508276 5.90829885,12.9766897 5.90197701,13.0049655 L5.62645977,14.2291034 C5.60772414,14.3116322 5.65956322,14.3937011 5.74197701,14.4124368 C5.76404598,14.4173793 5.7868046,14.4174943 5.80887356,14.4126667 L7.03864368,14.1428966 C7.1214023,14.1248506 7.17381609,14.0431264 7.15565517,13.9603678 C7.14944828,13.9316322 7.13496552,13.9054253 7.11416092,13.8846207" id="Fill-1"></path>
                <path d="M12.1754598,8.87081609 L11.1785632,7.87391954 C10.9743103,7.66943678 10.642931,7.6692069 10.4384483,7.87345977 C10.4383333,7.87357471 10.4381034,7.8738046 10.4379885,7.87391954 L7.22454023,11.0872529 C7.02028736,11.2918506 7.02028736,11.6232299 7.22454023,11.8279425 L8.22143678,12.8248391 C8.42568966,13.0294368 8.75706897,13.0296667 8.96166667,12.8252989 C8.96178161,12.8251839 8.96189655,12.824954 8.96201149,12.8248391 L12.1754598,9.6113908 C12.3799425,9.40725287 12.3801724,9.07575862 12.1759195,8.87127586 C12.1758046,8.87116092 12.1756897,8.87093103 12.1754598,8.87081609" id="Fill-3"></path>
                <path d="M14.601931,6.4443908 L13.6049195,5.44749425 C13.4007816,5.24289655 13.0692874,5.24278161 12.8648046,5.44703448 C12.8646897,5.44714943 12.8645747,5.44737931 12.8643448,5.44749425 L12.2621609,6.0497931 C12.0575632,6.25404598 12.0573333,6.58542529 12.2617011,6.78990805 C12.2618161,6.79002299 12.261931,6.79025287 12.2621609,6.79036782 L13.2589425,7.78737931 C13.4633103,7.99186207 13.7946897,7.99197701 13.9991724,7.78783908 C13.9992874,7.7876092 13.9995172,7.78749425 13.9996322,7.78737931 L14.601931,7.18496552 C14.8064138,6.98082759 14.8066437,6.64933333 14.6023908,6.44485057 C14.6022759,6.44473563 14.602046,6.44450575 14.601931,6.4443908" id="Fill-5"></path>
                <path d="M16.5977126,7.35590805 L8.73909195,15.2153333 C8.63552874,15.3187816 8.50437931,15.3903908 8.36127586,15.4217701 L4.72610345,16.2191264 C4.31265517,16.3098161 3.90403448,16.0483218 3.81322989,15.6349885 C3.7892069,15.5253333 3.78955172,15.4117701 3.81414943,15.3022299 L4.62874713,11.6834943 C4.66047126,11.5421149 4.73185057,11.4125747 4.83449425,11.309931 L12.6931149,3.45131034 C12.9923103,3.15211494 13.4774828,3.15211494 13.7766782,3.45131034 L16.5977126,6.27234483 C16.896908,6.57165517 16.896908,7.0565977 16.5977126,7.35590805 M17.867023,0.114873563 L2.05633333,0.114873563 C0.925298851,0.114873563 1.14942529e-05,1.04016092 1.14942529e-05,2.1711954 L1.14942529e-05,17.9818851 C1.14942529e-05,19.1129195 0.925298851,20.0383218 2.05633333,20.0383218 L17.867023,20.0383218 C18.9980575,20.0383218 19.9234598,19.1129195 19.9234598,17.9818851 L19.9234598,2.1711954 C19.9234598,1.04016092 18.9980575,0.114873563 17.867023,0.114873563" id="Fill-7"></path>
            </g>
        </g>
    </g>
</svg>