<?xml version="1.0" encoding="UTF-8"?>
<svg width="24px" height="16px" viewBox="0 0 24 16" version="1.1" xmlns="http://www.w3.org/2000/svg" xmlns:xlink="http://www.w3.org/1999/xlink">
    <!-- Generator: Sketch 47.1 (45422) - http://www.bohemiancoding.com/sketch -->
    <title>50</title>
    <desc>Created with Sketch.</desc>
    <defs></defs>
    <g id="Page-1" stroke="none" stroke-width="1" fill="none" fill-rule="evenodd">
        <g id="艺商城" transform="translate(-341.000000, -71.000000)" fill="#666666">
            <g id="50" transform="translate(341.000000, 71.000000)">
                <path d="M4.9548043,2.61505376 L22.4171699,2.61505376 C22.9506753,2.61505376 23.3978151,2.18494624 23.3978151,1.6344086 C23.3978151,1.10107527 22.9677075,0.653763441 22.4171699,0.653763441 L4.9548043,0.653763441 C4.42147097,0.653763441 3.97415914,1.08387097 3.97415914,1.6344086 C3.97415914,2.16774194 4.40426667,2.61505376 4.9548043,2.61505376" id="Fill-1"></path>
                <path d="M22.4171699,6.81288602 L4.9548043,6.81288602 C4.42147097,6.81288602 3.97415914,7.26019785 3.97415914,7.79353118 C3.97415914,8.32686452 4.40426667,8.77417634 4.9548043,8.77417634 L22.4171699,8.77417634 C22.9506753,8.77417634 23.3978151,8.32686452 23.3978151,7.79353118 C23.3978151,7.26019785 22.9677075,6.81288602 22.4171699,6.81288602" id="Fill-3"></path>
                <path d="M22.4171699,13.4537634 L4.9548043,13.4537634 C4.42147097,13.4537634 3.97415914,13.9010753 3.97415914,14.4344086 C3.97415914,14.9677419 4.40426667,15.4150538 4.9548043,15.4150538 L22.4171699,15.4150538 C22.9506753,15.4150538 23.3978151,14.9677419 23.3978151,14.4344086 C23.3978151,13.9010753 22.9677075,13.4537634 22.4171699,13.4537634" id="Fill-5"></path>
                <path d="M0.98067957,0.172008602 C0.447346237,0.172008602 3.44086022e-05,0.602116129 3.44086022e-05,1.15265376 L3.44086022e-05,2.13329892 C3.44086022e-05,2.66663226 0.430141935,3.11394409 0.98067957,3.11394409 C1.5312172,3.11394409 1.96132473,2.66663226 1.96132473,2.13329892 L1.96132473,1.15265376 C1.96132473,0.61932043 1.5140129,0.172008602 0.98067957,0.172008602" id="Fill-7"></path>
                <path d="M0.98067957,6.3312 C0.447346237,6.3312 3.44086022e-05,6.76130753 3.44086022e-05,7.31184516 L3.44086022e-05,8.29249032 C3.44086022e-05,8.82582366 0.430141935,9.27313548 0.98067957,9.27313548 C1.5312172,9.27313548 1.96132473,8.82582366 1.96132473,8.29249032 L1.96132473,7.31184516 C1.96132473,6.77851183 1.5140129,6.3312 0.98067957,6.3312" id="Fill-10"></path>
                <path d="M0.98067957,12.9720774 C0.447346237,12.9720774 3.44086022e-05,13.4021849 3.44086022e-05,13.9527226 L3.44086022e-05,14.9331957 C3.44086022e-05,15.4667011 0.430141935,15.9140129 0.98067957,15.9140129 C1.5312172,15.9140129 1.96132473,15.4667011 1.96132473,14.9331957 L1.96132473,13.9527226 C1.96132473,13.4193892 1.5140129,12.9720774 0.98067957,12.9720774" id="Fill-12"></path>
            </g>
        </g>
    </g>
</svg>